<?xml version="1.0" encoding="UTF-8"?>
<svg id="Layer_1" xmlns="http://www.w3.org/2000/svg" width="21.1327cm" height="4cm" version="1.1" viewBox="0 0 599.0362 113.3858">
  <!-- Generator: Adobe Illustrator 29.3.1, SVG Export Plug-In . SVG Version: 2.1.0 Build 151)  -->
  <defs>
    <style>
      .st0, .st1, .st2, .st3, .st4, .st5, .st6, .st7 {
        fill: #fff;
        stroke-miterlimit: 10;
      }

      .st0, .st7 {
        stroke: #e9c369;
      }

      .st8 {
        fill: #e9c369;
      }

      .st9 {
        fill: #b6aed6;
      }

      .st1, .st3, .st6, .st7 {
        stroke-width: .5px;
      }

      .st1, .st4 {
        stroke: #f4a261;
      }

      .st2, .st3 {
        stroke: #b6aed6;
      }

      .st10 {
        fill: #f4a261;
      }

      .st11 {
        fill: #a9dadc;
      }

      .st5, .st6 {
        stroke: #a9dadc;
      }
    </style>
  </defs>
  <path class="st11" d="M18.5805,49.6063h106.2992v14.1732H18.5805c-3.9112,0-7.0866-3.1754-7.0866-7.0866h0c0-3.9112,3.1754-7.0866,7.0866-7.0866Z"/>
  <path class="st9" d="M358.738,49.6063h106.2992v14.1732h-106.2992c-3.9112,0-7.0866-3.1754-7.0866-7.0866h0c0-3.9112,3.1754-7.0866,7.0866-7.0866Z" transform="translate(816.6885 113.3858) rotate(-180)"/>
  <rect class="st10" x="124.8797" y="49.6063" width="113.3858" height="14.1732"/>
  <rect class="st8" x="238.2655" y="49.6063" width="113.3858" height="14.1732"/>
  <circle class="st4" cx="181.5726" cy="21.2271" r="11.4939"/>
  <g>
    <path class="st10" d="M174.083,23.5703c0-.0239-.0015-.042-.0039-.0542-.0024-.0117-.0034-.0322-.0034-.061,0-.2983.0625-.5703.1875-.8154.125-.2456.2852-.4741.48-.6855.1948-.2119.3906-.416.5879-.6133.1636-.1636.3164-.3237.4585-.48.1416-.1562.2573-.3174.3462-.4834s.1333-.3452.1333-.5376c0-.3125-.0889-.5366-.2666-.6709-.1782-.1348-.3921-.2021-.6426-.2021-.2114,0-.394.0361-.5483.1079-.1538.0723-.2754.146-.3643.2202-.0889.0747-.1479.1216-.1768.1406l-.2812-.4038c.0332-.0435.1094-.1118.2271-.2056.1177-.0942.272-.1792.4619-.2563s.4077-.1152.6528-.1152c.3706,0,.6665.0537.8877.1621s.3813.2646.48.4692c.0986.2041.1479.4531.1479.7466,0,.2261-.0566.4473-.1699.6641-.1128.2163-.2598.4282-.4399.6348-.1802.207-.3691.4111-.5664.6133-.0864.0869-.1865.1904-.2993.3105-.1133.1201-.2202.2441-.3213.3716s-.1851.249-.2524.3643-.1011.2139-.1011.2959h2.3452v.4834h-2.9585Z"/>
    <path class="st10" d="M179.5527,23.6787c-.5054,0-.9009-.2285-1.187-.6855s-.4292-1.0991-.4292-1.9268c0-.8271.1416-1.4697.4253-1.9268.2842-.4565.6807-.6851,1.1909-.6851.5146,0,.9126.2285,1.1943.6851.2812.457.4219,1.0996.4219,1.9268,0,.8276-.1406,1.4697-.4219,1.9268-.2817.457-.6797.6855-1.1943.6855ZM179.5527,23.166c.1973,0,.3608-.0576.4907-.1729.1299-.1157.2319-.272.3066-.4692.0742-.1973.1274-.4219.1587-.6748.0312-.2524.0469-.5132.0469-.7827,0-.2739-.0156-.5361-.0469-.7866-.0312-.25-.0845-.4736-.1587-.6709-.0747-.1973-.1768-.3535-.3066-.4692-.1299-.1152-.2935-.1729-.4907-.1729s-.3608.0576-.4907.1729c-.1299.1157-.2324.272-.3066.4692-.0747.1973-.1274.4209-.1587.6709-.0312.2505-.0469.5127-.0469.7866,0,.2695.0156.5303.0469.7827.0312.2529.084.4775.1587.6748.0742.1973.1768.3535.3066.4692.1299.1152.2935.1729.4907.1729ZM179.5669,21.4849c-.1348,0-.2466-.0518-.3354-.1553-.0889-.103-.1333-.2222-.1333-.3569s.0444-.2549.1333-.3608c.0889-.1055.2007-.1587.3354-.1587.1396,0,.2515.0532.3359.1587.084.106.126.2261.126.3608s-.042.2539-.126.3569c-.0845.1035-.1963.1553-.3359.1553Z"/>
    <path class="st10" d="M182.1646,23.5703c0-.0239-.0015-.042-.0039-.0542-.0024-.0117-.0034-.0322-.0034-.061,0-.2983.0625-.5703.1875-.8154.125-.2456.2852-.4741.4795-.6855.1953-.2119.3906-.416.5879-.6133.1641-.1636.3164-.3237.459-.48s.2578-.3174.3457-.4834c.0898-.166.1348-.3452.1348-.5376,0-.3125-.0898-.5366-.2676-.6709-.1777-.1348-.3926-.2021-.6426-.2021-.2109,0-.3945.0361-.5488.1079-.1533.0723-.2749.146-.3638.2202-.0889.0747-.1479.1216-.1768.1406l-.2812-.4038c.0332-.0435.1094-.1118.2271-.2056.1177-.0942.272-.1792.4619-.2563.1895-.0771.4082-.1152.6523-.1152.3711,0,.666.0537.8887.1621.2207.1084.3809.2646.4785.4692.0996.2041.1484.4531.1484.7466,0,.2261-.0566.4473-.1699.6641-.1133.2163-.2598.4282-.4395.6348-.1797.207-.3691.4111-.5664.6133-.0859.0869-.1865.1904-.2988.3105-.1133.1201-.2207.2441-.3223.3716-.1006.1274-.1846.249-.252.3643s-.1011.2139-.1011.2959h2.3452v.4834h-2.9585Z"/>
    <path class="st10" d="M187.3379,23.6787c-.1689,0-.3379-.0171-.5088-.0508s-.3184-.0708-.4434-.1118c-.126-.0405-.21-.0708-.2529-.0903l.1084-.5049c.082.0337.2139.083.3965.1479s.4111.0972.6855.0972c.457,0,.7822-.0889.9746-.2666.1924-.1782.2881-.4209.2881-.729,0-.2646-.0684-.4736-.2051-.6279-.1377-.1538-.3145-.2632-.5303-.3281-.2168-.0649-.4453-.0972-.6855-.0972h-.1299v-.4546h.1943c.168,0,.3408-.0244.5156-.0723.1758-.0483.3223-.1357.4404-.2637.1182-.1274.1768-.311.1768-.5518,0-.2021-.043-.3618-.1299-.48-.0859-.1177-.2012-.2021-.3428-.2524-.1416-.0508-.292-.0757-.4512-.0757-.2402,0-.4365.0337-.5879.1011s-.2822.1348-.3926.2017l-.2168-.4399c.1006-.0815.2637-.1646.4873-.249.2236-.084.4727-.126.7461-.126.3467,0,.627.0552.8408.1655.2139.1108.3721.2622.4727.4546.1016.1929.1514.4116.1514.6567,0,.2793-.0732.5122-.2197.7002-.1465.1875-.3311.3296-.5518.4258.1729.043.335.1211.4863.2344.1523.1128.2744.2598.3682.4399.0938.1807.1406.3984.1406.6533,0,.2837-.0635.5386-.1904.7646-.1279.2261-.3252.4043-.5918.5342-.2676.1299-.6152.1948-1.043.1948Z"/>
  </g>
  <circle class="st0" cx="294.9584" cy="92.1587" r="11.4939"/>
  <g>
    <path class="st8" d="M287.4688,94.502c0-.0244-.001-.042-.0039-.0547-.002-.0117-.0029-.0322-.0029-.0605,0-.2988.0625-.5703.1875-.8154.125-.2461.2852-.4746.4795-.6855.1953-.2119.3906-.416.5879-.6133.1641-.1641.3164-.3242.459-.4805.1416-.1562.2568-.3174.3457-.4834s.1338-.3447.1338-.5371c0-.3125-.0889-.5371-.2666-.6709-.1787-.1348-.3926-.2021-.6426-.2021-.2119,0-.3945.0361-.5488.1074-.1533.0723-.2754.1465-.3643.2207s-.1475.1211-.1768.1406l-.2812-.4043c.0332-.043.1094-.1113.2275-.2051.1172-.0947.2715-.1797.4619-.2568.1895-.0771.4072-.1152.6523-.1152.3711,0,.667.0537.8877.1621.2217.1084.3818.2646.4805.4697.0986.2041.1475.4531.1475.7461,0,.2266-.0566.4473-.1699.6641-.1123.2168-.2598.4287-.4395.6348-.1807.207-.3691.4111-.5664.6133-.0869.0869-.1865.1904-.2998.3105s-.2197.2441-.3213.3721c-.1006.127-.1846.249-.252.3643s-.1016.2139-.1016.2959h2.3457v.4834h-2.959Z"/>
    <path class="st8" d="M292.9385,94.6104c-.5049,0-.9004-.2285-1.1865-.6855s-.4297-1.0996-.4297-1.9268.1416-1.4697.4258-1.9268.6807-.6855,1.1904-.6855c.5146,0,.9131.2285,1.1943.6855s.4219,1.0996.4219,1.9268-.1406,1.4697-.4219,1.9268-.6797.6855-1.1943.6855ZM292.9385,94.0977c.1973,0,.3613-.0576.4912-.1729.1299-.1162.2314-.2725.3066-.4697.0742-.1973.127-.4219.1582-.6748.0312-.252.0469-.5127.0469-.7822,0-.2744-.0156-.5361-.0469-.7871-.0312-.25-.084-.4736-.1582-.6709-.0752-.1973-.1768-.3535-.3066-.4688s-.2939-.1729-.4912-.1729-.3604.0576-.4902.1729-.2324.2715-.3066.4688c-.0752.1973-.1279.4209-.1592.6709-.0312.251-.0469.5127-.0469.7871,0,.2695.0156.5303.0469.7822.0312.2529.084.4775.1592.6748.0742.1973.1768.3535.3066.4697.1299.1152.293.1729.4902.1729ZM292.9531,92.416c-.1348,0-.2471-.0518-.3359-.1553-.0889-.1025-.1328-.2217-.1328-.3564s.0439-.2549.1328-.3613c.0889-.1055.2012-.1582.3359-.1582.1396,0,.251.0527.3359.1582.084.1064.126.2266.126.3613s-.042.2539-.126.3564c-.085.1035-.1963.1553-.3359.1553Z"/>
    <path class="st8" d="M295.5508,94.502c0-.0244-.002-.042-.0039-.0547-.0029-.0117-.0039-.0322-.0039-.0605,0-.2988.0625-.5703.1875-.8154.125-.2461.2852-.4746.4795-.6855.1953-.2119.3906-.416.5879-.6133.1641-.1641.3164-.3242.459-.4805s.2578-.3174.3457-.4834c.0898-.166.1348-.3447.1348-.5371,0-.3125-.0898-.5371-.2676-.6709-.1777-.1348-.3926-.2021-.6426-.2021-.2109,0-.3945.0361-.5488.1074-.1533.0723-.2744.1465-.3633.2207s-.1484.1211-.1768.1406l-.2812-.4043c.0332-.043.1094-.1113.2266-.2051.1182-.0947.2725-.1797.4619-.2568s.4082-.1152.6523-.1152c.3711,0,.666.0537.8887.1621.2207.1084.3809.2646.4785.4697.0996.2041.1484.4531.1484.7461,0,.2266-.0566.4473-.1699.6641s-.2598.4287-.4395.6348c-.1797.207-.3691.4111-.5664.6133-.0859.0869-.1865.1904-.2988.3105-.1133.1201-.2207.2441-.3223.3721-.1006.127-.1846.249-.252.3643s-.1006.2139-.1006.2959h2.3447v.4834h-2.958Z"/>
    <path class="st8" d="M301.6035,94.502v-1.3066h-2.2939v-.375c.0859-.2119.209-.459.3682-.7432.1582-.2842.3389-.5791.541-.8877.2021-.3076.418-.6084.6494-.9014.2305-.2939.4639-.5557.6992-.7871h.5703v3.2256h.6064v.4688h-.6064v1.3066h-.5342ZM299.8652,92.7266h1.7383v-2.5762c-.2158.2217-.4316.4756-.6455.7617s-.415.5859-.6025.8984-.3516.6182-.4902.916Z"/>
  </g>
  <circle class="st5" cx="68.1868" cy="92.1587" r="11.4939"/>
  <g>
    <path class="st11" d="M60.6973,94.502c0-.0244-.0015-.042-.0039-.0547-.0024-.0117-.0034-.0322-.0034-.0605,0-.2988.0625-.5703.1875-.8154.125-.2461.2852-.4746.48-.6855.1948-.2119.3906-.416.5879-.6133.1636-.1641.3164-.3242.4585-.4805.1416-.1562.2573-.3174.3462-.4834s.1333-.3447.1333-.5371c0-.3125-.0889-.5371-.2666-.6709-.1782-.1348-.3921-.2021-.6426-.2021-.2114,0-.394.0361-.5483.1074-.1538.0723-.2754.1465-.3643.2207s-.1479.1211-.1768.1406l-.2812-.4043c.0332-.043.1094-.1113.2271-.2051.1177-.0947.272-.1797.4619-.2568s.4077-.1152.6528-.1152c.3706,0,.6665.0537.8877.1621s.3813.2646.48.4697c.0986.2041.1479.4531.1479.7461,0,.2266-.0566.4473-.1699.6641-.1128.2168-.2598.4287-.4399.6348-.1802.207-.3691.4111-.5664.6133-.0864.0869-.1865.1904-.2993.3105-.1133.1201-.2202.2441-.3213.3721-.1011.127-.1851.249-.2524.3643s-.1011.2139-.1011.2959h2.3452v.4834h-2.9585Z"/>
    <path class="st11" d="M66.167,94.6104c-.5054,0-.9009-.2285-1.187-.6855s-.4292-1.0996-.4292-1.9268.1416-1.4697.4253-1.9268c.2842-.457.6807-.6855,1.1909-.6855.5146,0,.9126.2285,1.1943.6855.2812.457.4219,1.0996.4219,1.9268s-.1406,1.4697-.4219,1.9268c-.2817.457-.6797.6855-1.1943.6855ZM66.167,94.0977c.1973,0,.3608-.0576.4907-.1729.1299-.1162.2319-.2725.3066-.4697.0742-.1973.1274-.4219.1587-.6748.0312-.252.0469-.5127.0469-.7822,0-.2744-.0156-.5361-.0469-.7871-.0312-.25-.0845-.4736-.1587-.6709-.0747-.1973-.1768-.3535-.3066-.4688s-.2935-.1729-.4907-.1729-.3608.0576-.4907.1729-.2324.2715-.3066.4688c-.0747.1973-.1274.4209-.1587.6709-.0312.251-.0469.5127-.0469.7871,0,.2695.0156.5303.0469.7822.0312.2529.084.4775.1587.6748.0742.1973.1768.3535.3066.4697.1299.1152.2935.1729.4907.1729ZM66.1812,92.416c-.1348,0-.2466-.0518-.3354-.1553-.0889-.1025-.1333-.2217-.1333-.3564s.0444-.2549.1333-.3613c.0889-.1055.2007-.1582.3354-.1582.1396,0,.2515.0527.3359.1582.084.1064.126.2266.126.3613s-.042.2539-.126.3564c-.0845.1035-.1963.1553-.3359.1553Z"/>
    <path class="st11" d="M68.7788,94.502c0-.0244-.0015-.042-.0039-.0547-.0024-.0117-.0034-.0322-.0034-.0605,0-.2988.0625-.5703.1875-.8154.125-.2461.2852-.4746.4795-.6855.1953-.2119.3906-.416.5879-.6133.1641-.1641.3164-.3242.459-.4805s.2578-.3174.3457-.4834c.0898-.166.1348-.3447.1348-.5371,0-.3125-.0898-.5371-.2676-.6709-.1777-.1348-.3926-.2021-.6426-.2021-.2109,0-.3945.0361-.5488.1074-.1533.0723-.2749.1465-.3638.2207s-.1479.1211-.1768.1406l-.2812-.4043c.0332-.043.1094-.1113.2271-.2051.1177-.0947.272-.1797.4619-.2568.1895-.0771.4082-.1152.6523-.1152.3711,0,.666.0537.8887.1621.2207.1084.3809.2646.4785.4697.0996.2041.1484.4531.1484.7461,0,.2266-.0566.4473-.1699.6641s-.2598.4287-.4395.6348c-.1797.207-.3691.4111-.5664.6133-.0859.0869-.1865.1904-.2988.3105-.1133.1201-.2207.2441-.3223.3721-.1006.127-.1846.249-.252.3643s-.1011.2139-.1011.2959h2.3452v.4834h-2.9585Z"/>
    <path class="st11" d="M72.8193,94.502c0-.0244-.001-.042-.0039-.0547-.002-.0117-.0029-.0322-.0029-.0605,0-.2988.0615-.5703.1875-.8154.125-.2461.2842-.4746.4795-.6855.1943-.2119.3906-.416.5879-.6133.1641-.1641.3164-.3242.458-.4805.1426-.1562.2578-.3174.3467-.4834s.1338-.3447.1338-.5371c0-.3125-.0889-.5371-.2676-.6709-.1777-.1348-.3916-.2021-.6416-.2021-.2119,0-.3945.0361-.5488.1074-.1543.0723-.2754.1465-.3643.2207s-.1475.1211-.1768.1406l-.2812-.4043c.0332-.043.1094-.1113.2275-.2051.1172-.0947.2715-.1797.4609-.2568.1904-.0771.4082-.1152.6533-.1152.3701,0,.666.0537.8877.1621s.3809.2646.4795.4697c.0986.2041.1484.4531.1484.7461,0,.2266-.0566.4473-.1699.6641s-.2598.4287-.4404.6348c-.1797.207-.3691.4111-.5664.6133-.0859.0869-.1865.1904-.2988.3105-.1133.1201-.2207.2441-.3213.3721-.1006.127-.1855.249-.2529.3643s-.1006.2139-.1006.2959h2.3447v.4834h-2.958Z"/>
  </g>
  <line class="st6" x1="68.1868" y1="80.6648" x2="68.1868" y2="63.7795"/>
  <line class="st7" x1="294.9584" y1="80.6648" x2="294.9584" y2="63.7795"/>
  <line class="st1" x1="181.5726" y1="49.6063" x2="181.5726" y2="32.721"/>
  <circle class="st2" cx="408.3443" cy="21.2271" r="11.4939"/>
  <g>
    <path class="st9" d="M400.8545,23.5703c0-.0239-.001-.042-.0039-.0542-.002-.0117-.0029-.0322-.0029-.061,0-.2983.0625-.5703.1875-.8154.125-.2456.2852-.4741.4795-.6855.1953-.2119.3906-.416.5879-.6133.1641-.1636.3164-.3237.459-.48.1416-.1562.2568-.3174.3457-.4834s.1338-.3452.1338-.5376c0-.3125-.0889-.5366-.2666-.6709-.1787-.1348-.3926-.2021-.6426-.2021-.2119,0-.3945.0361-.5488.1079-.1533.0723-.2754.146-.3643.2202-.0889.0747-.1475.1216-.1768.1406l-.2812-.4038c.0332-.0435.1094-.1118.2275-.2056.1172-.0942.2715-.1792.4619-.2563.1895-.0771.4072-.1152.6523-.1152.3711,0,.667.0537.8877.1621.2217.1084.3818.2646.4805.4692.0986.2041.1475.4531.1475.7466,0,.2261-.0566.4473-.1699.6641-.1123.2163-.2598.4282-.4395.6348-.1807.207-.3691.4111-.5664.6133-.0869.0869-.1865.1904-.2998.3105s-.2197.2441-.3213.3716c-.1006.1274-.1846.249-.252.3643s-.1016.2139-.1016.2959h2.3457v.4834h-2.959Z"/>
    <path class="st9" d="M406.3242,23.6787c-.5049,0-.9004-.2285-1.1865-.6855s-.4297-1.0991-.4297-1.9268c0-.8271.1416-1.4697.4258-1.9268.2842-.4565.6807-.6851,1.1904-.6851.5146,0,.9131.2285,1.1943.6851.2812.457.4219,1.0996.4219,1.9268,0,.8276-.1406,1.4697-.4219,1.9268s-.6797.6855-1.1943.6855ZM406.3242,23.166c.1973,0,.3613-.0576.4912-.1729.1299-.1157.2314-.272.3066-.4692.0742-.1973.127-.4219.1582-.6748.0312-.2524.0469-.5132.0469-.7827,0-.2739-.0156-.5361-.0469-.7866-.0312-.25-.084-.4736-.1582-.6709-.0752-.1973-.1768-.3535-.3066-.4692-.1299-.1152-.2939-.1729-.4912-.1729s-.3604.0576-.4902.1729c-.1299.1157-.2324.272-.3066.4692-.0752.1973-.1279.4209-.1592.6709-.0312.2505-.0469.5127-.0469.7866,0,.2695.0156.5303.0469.7827.0312.2529.084.4775.1592.6748.0742.1973.1768.3535.3066.4692.1299.1152.293.1729.4902.1729ZM406.3389,21.4849c-.1348,0-.2471-.0518-.3359-.1553-.0889-.103-.1328-.2222-.1328-.3569s.0439-.2549.1328-.3608c.0889-.1055.2012-.1587.3359-.1587.1396,0,.251.0532.3359.1587.084.106.126.2261.126.3608s-.042.2539-.126.3569c-.085.1035-.1963.1553-.3359.1553Z"/>
    <path class="st9" d="M408.9365,23.5703c0-.0239-.002-.042-.0039-.0542-.0029-.0117-.0039-.0322-.0039-.061,0-.2983.0625-.5703.1875-.8154.125-.2456.2852-.4741.4795-.6855.1953-.2119.3906-.416.5879-.6133.1641-.1636.3164-.3237.459-.48s.2578-.3174.3457-.4834c.0898-.166.1348-.3452.1348-.5376,0-.3125-.0898-.5366-.2676-.6709-.1777-.1348-.3926-.2021-.6426-.2021-.2109,0-.3945.0361-.5488.1079-.1533.0723-.2744.146-.3633.2202-.0889.0747-.1484.1216-.1768.1406l-.2812-.4038c.0332-.0435.1094-.1118.2266-.2056.1182-.0942.2725-.1792.4619-.2563s.4082-.1152.6523-.1152c.3711,0,.666.0537.8887.1621.2207.1084.3809.2646.4785.4692.0996.2041.1484.4531.1484.7466,0,.2261-.0566.4473-.1699.6641-.1133.2163-.2598.4282-.4395.6348-.1797.207-.3691.4111-.5664.6133-.0859.0869-.1865.1904-.2988.3105-.1133.1201-.2207.2441-.3223.3716-.1006.1274-.1846.249-.252.3643s-.1006.2139-.1006.2959h2.3447v.4834h-2.958Z"/>
    <path class="st9" d="M414.1816,23.6787c-.1641,0-.3281-.0171-.4941-.0508s-.3105-.0708-.4336-.1118c-.1221-.0405-.208-.0732-.2559-.0972l.1084-.5054c.0723.0337.1992.0845.3828.1519.1826.0674.4082.1006.6777.1006.293,0,.5283-.043.7031-.1299.1758-.0864.3027-.2017.3789-.3462.0771-.144.1162-.3032.1162-.4761,0-.1973-.0342-.3716-.1016-.5234-.0674-.1514-.1787-.2778-.335-.3784-.1572-.1011-.3711-.1782-.6426-.231-.2715-.0532-.6094-.0796-1.0137-.0796.043-.3223.0752-.6118.0977-.8696.0215-.2573.0381-.5098.0498-.7573.0127-.248.0234-.5161.0332-.8047h2.3662v.4834h-1.8545c-.0049.0674-.0117.1675-.0215.2993-.0098.1323-.0195.2744-.0293.4258-.0088.1519-.0205.2949-.0322.4297-.0117.1343-.0225.2402-.0322.3174.7451.0239,1.2803.1816,1.6055.4727.3242.291.4873.6841.4873,1.1797,0,.2886-.0605.5459-.1807.772s-.3096.4043-.5664.5342c-.2578.1299-.5957.1948-1.0137.1948Z"/>
  </g>
  <line class="st3" x1="408.3443" y1="49.6063" x2="408.3443" y2="32.721"/>
</svg>