<?xml version="1.0" encoding="UTF-8"?><svg id="Layer_1" xmlns="http://www.w3.org/2000/svg" viewBox="0 0 197.41016 62.72485"><path d="M5.92139.15771l11.13184,8.72412L28.18506.15771l5.52637,28.65869H.39502L5.92139.15771Z" style="fill:#231f20;"/><path d="M49.14551,0l14.64502,28.81641h-29.29004L49.14551,0Z" style="fill:#231f20;"/><path d="M72.75098,13.5791l-7.4209-12.39502h25.89551l-7.4209,12.39502,7.73633,15.2373h-26.52637l7.73633-15.2373Z" style="fill:#231f20;"/><path d="M92.29004,1.18408h33.86914l-9.47363,28.85596-7.46094-11.68457-7.46094,11.68457L92.29004,1.18408Z" style="fill:#231f20;"/><path d="M128.92188,1.18408h21.11914v9.71094h-11.4082v3.11865h9.27637v1.81543h-9.27637v3.27637h11.4082v9.71094h-21.11914V1.18408Z" style="fill:#231f20;"/><path d="M154.34375,1.18408h9.86914v17.92139h9.94727v9.71094h-19.81641V1.18408Z" style="fill:#231f20;"/><path d="M177.59375,1.18408h9.86914v17.92139h9.94727v9.71094h-19.81641V1.18408Z" style="fill:#231f20;"/><path d="M29.29004,33.90796l-14.64502,28.81689L0,33.90796h29.29004Z" style="fill:#231f20;"/><path d="M28.10596,47.68481c0-8.21094,6.03955-14.25049,14.3291-14.25049,8.21094,0,14.25049,6.03955,14.25049,14.25049,0,8.28955-6.03955,14.3291-14.21094,14.3291-8.3291,0-14.36865-6.03955-14.36865-14.3291Z" style="fill:#231f20;"/><path d="M60.04053,33.90796h9.86865v17.92139h9.94727v9.71094h-19.81592v-27.63232Z" style="fill:#231f20;"/><path d="M90.90918,43.6189h-7.61914v-9.71094h23.09277l-8.72363,17.92139h7.77637v9.71094h-23.33008l8.80371-17.92139Z" style="fill:#231f20;"/></svg>